<svg xmlns="http://www.w3.org/2000/svg"
  width="495" height="184"
  viewBox="0 0 495 184"
  role="img"
  aria-label="Top programming languages for carlosrbl">

  <title>Top Languages – carlosrbl</title>

  <style>
    .card      { fill: #161b22; stroke: #30363d; stroke-width: 1; }
    .title     { font: 600 14px -apple-system, BlinkMacSystemFont, 'Segoe UI', sans-serif; fill: #00D9FF; }
    .updated   { font: 400 10px -apple-system, BlinkMacSystemFont, 'Segoe UI', sans-serif; fill: #484f58; }
    .lang-name { font: 500 11px -apple-system, BlinkMacSystemFont, 'Segoe UI', sans-serif; fill: #c9d1d9; }
    .lang-pct  { font: 600 11px -apple-system, BlinkMacSystemFont, 'Segoe UI', sans-serif; fill: #8b949e; }
  </style>

  <defs>
    <!-- Clip all bar segments to the rounded bar shape -->
    <clipPath id="bar-clip">
      <rect x="20" y="52" width="455" height="10" rx="5" />
    </clipPath>
  </defs>

  <!-- Card background -->
  <rect width="495" height="184" rx="6" ry="6" class="card" />

  <!-- Title -->
  <text x="20" y="30" class="title">⚡ Languages Used</text>

  <!-- Last updated -->
  <text x="475" y="30" class="updated" text-anchor="end">Updated Sep 26, 2026</text>

  <!-- Stacked bar background track -->
  <rect x="20" y="52" width="455" height="10" rx="5" fill="#21262d" />

  <!-- Stacked bar segments (clipped to rounded track) -->
  <g clip-path="url(#bar-clip)">
    <rect x="20.00" y="52" width="113.83" height="10" fill="#4F5D95" />
    <rect x="133.83" y="52" width="84.06" height="10" fill="#f1e05a" />
    <rect x="217.88" y="52" width="75.34" height="10" fill="#b07219" />
    <rect x="293.22" y="52" width="50.16" height="10" fill="#3178c6" />
    <rect x="343.38" y="52" width="46.46" height="10" fill="#e34c26" />
    <rect x="389.84" y="52" width="34.16" height="10" fill="#8b949e" />
    <rect x="424.00" y="52" width="27.47" height="10" fill="#563d7c" />
    <rect x="451.47" y="52" width="14.86" height="10" fill="#8b949e" />
    <rect x="466.33" y="52" width="5.26" height="10" fill="#8b949e" />
    <rect x="471.58" y="52" width="2.00" height="10" fill="#A97BFF" />
    <rect x="473.58" y="52" width="2.00" height="10" fill="#c6538c" />
    <rect x="475.58" y="52" width="2.00" height="10" fill="#8b949e" />
  </g>

  <!-- Legend -->
  
    <g transform="translate(20, 76)">
      <circle cx="5" cy="5" r="5" fill="#4F5D95" />
      <text x="14" y="9" class="lang-name">PHP</text>
      <text x="14" y="9" class="lang-pct" dx="21.6">25.02%</text>
    </g>
    <g transform="translate(171.66666666666666, 76)">
      <circle cx="5" cy="5" r="5" fill="#f1e05a" />
      <text x="14" y="9" class="lang-name">JavaScript</text>
      <text x="14" y="9" class="lang-pct" dx="72">18.47%</text>
    </g>
    <g transform="translate(323.3333333333333, 76)">
      <circle cx="5" cy="5" r="5" fill="#b07219" />
      <text x="14" y="9" class="lang-name">Java</text>
      <text x="14" y="9" class="lang-pct" dx="28.8">16.56%</text>
    </g>
    <g transform="translate(20, 98)">
      <circle cx="5" cy="5" r="5" fill="#3178c6" />
      <text x="14" y="9" class="lang-name">TypeScript</text>
      <text x="14" y="9" class="lang-pct" dx="72">11.02%</text>
    </g>
    <g transform="translate(171.66666666666666, 98)">
      <circle cx="5" cy="5" r="5" fill="#e34c26" />
      <text x="14" y="9" class="lang-name">HTML</text>
      <text x="14" y="9" class="lang-pct" dx="28.8">10.21%</text>
    </g>
    <g transform="translate(323.3333333333333, 98)">
      <circle cx="5" cy="5" r="5" fill="#8b949e" />
      <text x="14" y="9" class="lang-name">Twig</text>
      <text x="14" y="9" class="lang-pct" dx="28.8">7.51%</text>
    </g>
    <g transform="translate(20, 120)">
      <circle cx="5" cy="5" r="5" fill="#563d7c" />
      <text x="14" y="9" class="lang-name">CSS</text>
      <text x="14" y="9" class="lang-pct" dx="21.6">6.04%</text>
    </g>
    <g transform="translate(171.66666666666666, 120)">
      <circle cx="5" cy="5" r="5" fill="#8b949e" />
      <text x="14" y="9" class="lang-name">Nunjucks</text>
      <text x="14" y="9" class="lang-pct" dx="57.6">3.27%</text>
    </g>
    <g transform="translate(323.3333333333333, 120)">
      <circle cx="5" cy="5" r="5" fill="#8b949e" />
      <text x="14" y="9" class="lang-name">Hack</text>
      <text x="14" y="9" class="lang-pct" dx="28.8">1.16%</text>
    </g>
    <g transform="translate(20, 142)">
      <circle cx="5" cy="5" r="5" fill="#A97BFF" />
      <text x="14" y="9" class="lang-name">Kotlin</text>
      <text x="14" y="9" class="lang-pct" dx="43.2">0.34%</text>
    </g>
    <g transform="translate(171.66666666666666, 142)">
      <circle cx="5" cy="5" r="5" fill="#c6538c" />
      <text x="14" y="9" class="lang-name">SCSS</text>
      <text x="14" y="9" class="lang-pct" dx="28.8">0.22%</text>
    </g>
    <g transform="translate(323.3333333333333, 142)">
      <circle cx="5" cy="5" r="5" fill="#8b949e" />
      <text x="14" y="9" class="lang-name">PowerShell</text>
      <text x="14" y="9" class="lang-pct" dx="72">0.19%</text>
    </g>
</svg>