<svg xmlns="http://www.w3.org/2000/svg"
  width="495" height="184"
  viewBox="0 0 495 184"
  role="img"
  aria-label="Top programming languages for carlosrbl">

  <title>Top Languages – carlosrbl</title>

  <style>
    .card      { fill: #161b22; stroke: #30363d; stroke-width: 1; }
    .title     { font: 600 14px -apple-system, BlinkMacSystemFont, 'Segoe UI', sans-serif; fill: #00D9FF; }
    .updated   { font: 400 10px -apple-system, BlinkMacSystemFont, 'Segoe UI', sans-serif; fill: #484f58; }
    .lang-name { font: 500 11px -apple-system, BlinkMacSystemFont, 'Segoe UI', sans-serif; fill: #c9d1d9; }
    .lang-pct  { font: 600 11px -apple-system, BlinkMacSystemFont, 'Segoe UI', sans-serif; fill: #8b949e; }
  </style>

  <defs>
    <!-- Clip all bar segments to the rounded bar shape -->
    <clipPath id="bar-clip">
      <rect x="20" y="52" width="455" height="10" rx="5" />
    </clipPath>
  </defs>

  <!-- Card background -->
  <rect width="495" height="184" rx="6" ry="6" class="card" />

  <!-- Title -->
  <text x="20" y="30" class="title">⚡ Languages Used</text>

  <!-- Last updated -->
  <text x="475" y="30" class="updated" text-anchor="end">Updated Jul 2, 2026</text>

  <!-- Stacked bar background track -->
  <rect x="20" y="52" width="455" height="10" rx="5" fill="#21262d" />

  <!-- Stacked bar segments (clipped to rounded track) -->
  <g clip-path="url(#bar-clip)">
    <rect x="20.00" y="52" width="123.81" height="10" fill="#4F5D95" />
    <rect x="143.81" y="52" width="91.43" height="10" fill="#f1e05a" />
    <rect x="235.24" y="52" width="54.56" height="10" fill="#3178c6" />
    <rect x="289.79" y="52" width="50.53" height="10" fill="#e34c26" />
    <rect x="340.33" y="52" width="44.66" height="10" fill="#b07219" />
    <rect x="384.99" y="52" width="37.16" height="10" fill="#8b949e" />
    <rect x="422.15" y="52" width="29.88" height="10" fill="#563d7c" />
    <rect x="452.03" y="52" width="16.16" height="10" fill="#8b949e" />
    <rect x="468.19" y="52" width="5.72" height="10" fill="#8b949e" />
    <rect x="473.91" y="52" width="2.00" height="10" fill="#c6538c" />
  </g>

  <!-- Legend -->
  
    <g transform="translate(20, 76)">
      <circle cx="5" cy="5" r="5" fill="#4F5D95" />
      <text x="14" y="9" class="lang-name">PHP</text>
      <text x="14" y="9" class="lang-pct" dx="21.6">27.21%</text>
    </g>
    <g transform="translate(171.66666666666666, 76)">
      <circle cx="5" cy="5" r="5" fill="#f1e05a" />
      <text x="14" y="9" class="lang-name">JavaScript</text>
      <text x="14" y="9" class="lang-pct" dx="72">20.09%</text>
    </g>
    <g transform="translate(323.3333333333333, 76)">
      <circle cx="5" cy="5" r="5" fill="#3178c6" />
      <text x="14" y="9" class="lang-name">TypeScript</text>
      <text x="14" y="9" class="lang-pct" dx="72">11.99%</text>
    </g>
    <g transform="translate(20, 98)">
      <circle cx="5" cy="5" r="5" fill="#e34c26" />
      <text x="14" y="9" class="lang-name">HTML</text>
      <text x="14" y="9" class="lang-pct" dx="28.8">11.11%</text>
    </g>
    <g transform="translate(171.66666666666666, 98)">
      <circle cx="5" cy="5" r="5" fill="#b07219" />
      <text x="14" y="9" class="lang-name">Java</text>
      <text x="14" y="9" class="lang-pct" dx="28.8">9.82%</text>
    </g>
    <g transform="translate(323.3333333333333, 98)">
      <circle cx="5" cy="5" r="5" fill="#8b949e" />
      <text x="14" y="9" class="lang-name">Twig</text>
      <text x="14" y="9" class="lang-pct" dx="28.8">8.17%</text>
    </g>
    <g transform="translate(20, 120)">
      <circle cx="5" cy="5" r="5" fill="#563d7c" />
      <text x="14" y="9" class="lang-name">CSS</text>
      <text x="14" y="9" class="lang-pct" dx="21.6">6.57%</text>
    </g>
    <g transform="translate(171.66666666666666, 120)">
      <circle cx="5" cy="5" r="5" fill="#8b949e" />
      <text x="14" y="9" class="lang-name">Nunjucks</text>
      <text x="14" y="9" class="lang-pct" dx="57.6">3.55%</text>
    </g>
    <g transform="translate(323.3333333333333, 120)">
      <circle cx="5" cy="5" r="5" fill="#8b949e" />
      <text x="14" y="9" class="lang-name">Hack</text>
      <text x="14" y="9" class="lang-pct" dx="28.8">1.26%</text>
    </g>
    <g transform="translate(20, 142)">
      <circle cx="5" cy="5" r="5" fill="#c6538c" />
      <text x="14" y="9" class="lang-name">SCSS</text>
      <text x="14" y="9" class="lang-pct" dx="28.8">0.24%</text>
    </g>
</svg>